{
	"asset":{
		"generator":"Khronos glTF Blender I/O v4.0.44",
		"version":"2.0"
	},
	"scene":0,
	"scenes":[
		{
			"name":"Scene",
			"nodes":[
				0
			]
		}
	],
	"nodes":[
		{
			"mesh":0,
			"name":"SingleMesh"
		}
	],
	"meshes":[
		{
			"name":"Plane",
			"primitives":[
				{
					"attributes":{
						"POSITION":0,
						"NORMAL":1,
						"TEXCOORD_0":2
					},
					"indices":3
				}
			]
		}
	],
	"accessors":[
		{
			"bufferView":0,
			"componentType":5126,
			"count":21297,
			"max":[
				10.164999961853027,
				0.16000008583068848,
				1
			],
			"min":[
				-1,
				0,
				-1
			],
			"type":"VEC3"
		},
		{
			"bufferView":1,
			"componentType":5126,
			"count":21297,
			"type":"VEC3"
		},
		{
			"bufferView":2,
			"componentType":5126,
			"count":21297,
			"type":"VEC2"
		},
		{
			"bufferView":3,
			"componentType":5123,
			"count":29847,
			"type":"SCALAR"
		}
	],
	"bufferViews":[
		{
			"buffer":0,
			"byteLength":255564,
			"byteOffset":0,
			"target":34962
		},
		{
			"buffer":0,
			"byteLength":255564,
			"byteOffset":255564,
			"target":34962
		},
		{
			"buffer":0,
			"byteLength":170376,
			"byteOffset":511128,
			"target":34962
		},
		{
			"buffer":0,
			"byteLength":59694,
			"byteOffset":681504,
			"target":34963
		}
	],
	"buffers":[
		{
			"byteLength":741200,
			"uri":"SpiralTranscription.bin"
		}
	]
}
